<?xml version="1.0" encoding="UTF-8"?>
<svg id="Layer_1" data-name="Layer 1" xmlns="http://www.w3.org/2000/svg" viewBox="0 0 356.93 356.93">
  <g>
    <circle cx="178.46" cy="178.46" r="171.46" style="fill: #226737; stroke-width: 0px;"/>
    <path d="M178.46,7c94.7,0,171.46,76.77,171.46,171.46s-76.77,171.46-171.46,171.46S7,273.16,7,178.46,83.77,7,178.46,7M178.46,0c-24.09,0-47.46,4.72-69.47,14.03-21.25,8.99-40.34,21.86-56.73,38.24-16.39,16.39-29.25,35.47-38.24,56.73C4.72,131,0,154.38,0,178.46s4.72,47.46,14.03,69.47c8.99,21.25,21.86,40.34,38.24,56.73s35.47,29.25,56.73,38.24c22.01,9.31,45.38,14.03,69.47,14.03s47.46-4.72,69.47-14.03c21.25-8.99,40.34-21.86,56.73-38.24,16.39-16.39,29.25-35.47,38.24-56.73,9.31-22.01,14.03-45.38,14.03-69.47s-4.72-47.46-14.03-69.47c-8.99-21.25-21.86-40.34-38.24-56.73s-35.47-29.25-56.73-38.24C225.93,4.72,202.55,0,178.46,0h0Z" style="fill: #f1ecc5; stroke-width: 0px;"/>
  </g>
  <g>
    <path d="M210.99,181.38l-6-.18c.01-.39,1.15-38.86,1.15-45.39,0-5.56-6.63-25.2-27.67-25.2s-27.48,20.58-27.55,22.92v20.37l53.4-.22.02,6-59.42.24v-26.4c0-5.1,8.74-28.91,33.55-28.91s33.67,23.21,33.67,31.2c0,6.62-1.1,43.98-1.15,45.57Z" style="fill: #f2ebc2; stroke-width: 0px;"/>
    <path d="M217.8,233.44h-78.39c-6.28,0-11.74-4.22-13.28-10.27l-15.86-62.24c-.47-1.84-.07-3.76,1.1-5.27,1.17-1.51,2.95-2.38,4.87-2.38h124.57c1.98,0,3.81.9,5.02,2.46,1.2,1.55,1.62,3.53,1.13,5.43l-15.9,62.04c-1.54,6.03-6.99,10.23-13.25,10.23ZM117.33,160.29l15.58,61.15c.75,2.95,3.42,5,6.5,5h78.39c3.06,0,5.72-2.04,6.47-4.97l15.69-61.18h-122.62Z" style="fill: #f2ebc2; stroke-width: 0px;"/>
    <path d="M237.23,184.79h-117.52c-1.93,0-3.5-1.57-3.5-3.5s1.57-3.5,3.5-3.5h117.52c1.93,0,3.5,1.57,3.5,3.5s-1.57,3.5-3.5,3.5Z" style="fill: #f2ebc2; stroke-width: 0px;"/>
    <path d="M230.35,210.13h-104.83c-1.93,0-3.5-1.57-3.5-3.5s1.57-3.5,3.5-3.5h104.83c1.93,0,3.5,1.57,3.5,3.5s-1.57,3.5-3.5,3.5Z" style="fill: #f2ebc2; stroke-width: 0px;"/>
  </g>
  <path d="M105.8,249.55c-1.18-1.97-2.36-3.94-3.54-5.9-8,1.44-16.01,2.89-24.01,4.33-.26.13-.52.26-.79.39,2.76-7.87,5.51-15.75,8.27-23.62-1.18-1.44-2.36-2.89-3.54-4.33-10.23,7.08-20.47,14.17-30.7,21.26,1.18,2.23,2.36,4.46,3.54,6.69,6.69-4.59,13.38-9.19,20.08-13.78-2.76,7.61-5.51,15.22-8.27,22.83,7.74-1.44,15.48-2.89,23.22-4.33-5.9,4.72-11.81,9.45-17.71,14.17,1.18,2.1,2.36,4.2,3.54,6.3h.79c9.58-7.61,19.16-15.22,28.74-22.83.13-.39.26-.79.39-1.18ZM287.27,111.39c-4.46,9.58-8.92,19.16-13.38,28.74,1.05,1.84,2.1,3.67,3.15,5.51,11.02-5.64,22.05-11.28,33.07-16.93-1.05-2.1-2.1-4.2-3.15-6.3-7.35,3.67-14.7,7.35-22.04,11.02,4.46-9.45,8.92-18.9,13.38-28.34l-3.94-5.9c-11.02,5.9-22.05,11.81-33.07,17.71,1.18,2.23,2.36,4.46,3.54,6.69,7.48-4.07,14.96-8.14,22.44-12.2ZM94.78,121.23c-1.44-3.54-2.89-7.09-4.33-10.63,3.02-4.07,6.04-8.14,9.05-12.2,3.8,1.44,7.61,2.89,11.42,4.33,1.18-1.84,2.36-3.67,3.54-5.51-12.33-5.25-24.67-10.5-37-15.75-1.84,1.44-3.67,2.89-5.51,4.33,5.38,12.86,10.76,25.72,16.14,38.58,2.23-1.05,4.46-2.1,6.69-3.15ZM81.4,90.52c3.8,1.57,7.61,3.15,11.42,4.72-1.84,2.62-3.67,5.25-5.51,7.87-1.97-4.2-3.94-8.4-5.9-12.6ZM210.69,85.25c5.82,0,12.15-4.53,12.15-12.15s-11.38-12.9-11.58-17.31c.17-1.62,2.15-3.12,3.18-3.12,1.83,0,5.1.7,8.97,5.25,1.64-1.97,3.04-3.64,4.68-5.61-.33-.44-5.97-6.95-14.2-6.95-2.55,0-6.18.37-8.89,4.64-1.61,2.55-1.62,5.12-1.61,6.02,0,5.85,2.59,6.64,6.08,10.66,3.58,4.13,5.39,3.41,5.39,7.22-.29,2.01-1.83,4.01-4.17,4.01s-6.92-1.87-9.97-6.69c-1.62,1.51-3.73,2.89-5.35,4.4,2.22,6.48,9.49,9.63,15.31,9.63ZM75.8,135.09c.44,2.73-5.62,11.88-5.76,12.14,2.1.79,4.8,1.55,6.9,2.34,7.51-6.53,7.26-12.26,5.96-17.92-1.3-5.66-15.21-9.97-30.73-17.24-1.05,2.1-2.58,4.27-3.63,6.37,22.74,11.21,26.81,11.57,27.25,14.3ZM223.95,267.41l-9.02,1.83s-7.2,11.82-11.11,20.07c-1.44-4.59-4.23-14.99-4.23-15.38-1.97.52-7.18,1.8-7.18,1.8l9.7,36.74s7.13-1.38,7.52-1.38c-1.44-5.51-2.97-10.22-4.41-15.74,6.56,4.07,20.09,12.36,20.09,12.36l8.04-3.94-22.31-13.53,12.92-22.84ZM256.96,283.41l-5.12-7.48,12.39-9.73-4.3-5.68-12.58,9.33s-3.12-4.55-4.56-6.92c4.33-3.15,13.24-9.91,13.24-9.91l-4.36-5.98-19.12,14.31,22.83,32.28,19.31-15.24-4.99-5.39-12.74,10.4ZM94.39,286.16c-.13.39-.26.79-.39,1.18,1.57,1.31,3.15,2.62,4.72,3.94.39.13.79.26,1.18.39,2.23-1.97,4.46-3.94,6.69-5.9,4.5.06,10.36,6.26,14.56,8.66-.13,3.02-.26,6.04-.39,9.05,2.36,1.18,4.72,2.36,7.09,3.54,1.05-13.91,2.1-27.82,3.15-41.73-2.23-1.31-4.46-2.62-6.69-3.94-9.97,8.27-19.95,16.53-29.92,24.8ZM121.94,287.34c-3.28-2.1-6.56-4.2-9.84-6.3v-.39c3.54-3.02,7.09-6.04,10.63-9.05-.26,5.25-.52,10.5-.79,15.75ZM280.58,218.85c-1.97-1.18-3.94-2.36-5.9-3.54-5.38,8.27-10.76,16.53-16.14,24.8,1.84,1.44,3.67,2.89,5.51,4.33,2.91-1.37,4.89-5.84,6.3-8.66h.39c8.66,5.12,17.32,10.24,25.98,15.35,1.18-1.84,2.36-3.67,3.54-5.51-8.66-5.25-17.32-10.5-25.98-15.75,2.1-3.67,4.2-7.35,6.3-11.02ZM185.46,40.66l-9.34.06s-9.96,13.77-12.45,17.92c-.52-5.51-1.05-11.02-1.57-16.53-2.49.26-4.99.52-7.48.79.92,12.6,1.84,25.19,2.76,37.79,2.49-.13,4.99-.26,7.48-.39-.26-5.77-.79-17.32-.79-17.32l14.4,15.98s5.02-.23,9.35-.34c-5.38-6.17-16.17-18.69-16.17-18.69l13.82-19.26ZM172.33,277.5c-4.11-2.59-13.36-3.02-19.29-3.15-1.71,12.07-3.41,24.14-5.12,36.22,2.23.26,4.46.52,6.69.79.26.13.52.26.79.39.52-4.46,1.05-8.92,1.57-13.38.92.13,1.84.26,2.76.39,4.09,2.02,7.85,11.6,9.84,15.75,2.89.13,5.77.26,8.66.39-3.41-5.77-6.82-11.55-10.23-17.32,9.15-1.63,12.45-14.96,4.33-20.08ZM158.16,292.07c.39-3.54.79-7.09,1.18-10.63,2.89.52,5.77,1.05,8.66,1.57,1.5,2.09,1.7,3.21,1.57,6.3-2.68,3.29-5.77,3.35-11.42,2.76ZM142.82,74.1c-3.69,4.89-7.92,8.43-13.31,8.17-6.5-.3-12.41-5.72-12.5-12.5-.09-7.48,6.97-12.23,12.61-12.84,2.89-.31,5.29.48,6.71,1.09.19-2.27.38-4.55.57-6.82-1.8-.79-4.55-1.69-7.85-1.55-8.77.38-19.43,8-19.66,19.66-.23,12.02,9.71,19.95,19.95,20.46,9.8.57,16.66-7.59,19.15-11.52-1.83-.99-4.61-3.73-5.67-4.16Z" style="fill: #f1ecc5; stroke-width: 0px;"/>
  <path d="M252.71,63.51c-11.19,0-20.25,9.17-20.25,20.48s9.07,20.48,20.25,20.48,20.25-9.17,20.25-20.48-9.07-20.48-20.25-20.48ZM252.71,96.99c-7.1,0-12.85-5.82-12.85-12.99s5.75-12.99,12.85-12.99,12.85,5.82,12.85,12.99-5.75,12.99-12.85,12.99Z" style="fill: #f1ecc5; stroke-width: 0px;"/>
</svg>